<svg width="25" height="25" viewBox="0 0 25 25" fill="none" xmlns="http://www.w3.org/2000/svg">
<path d="M8.97998 10.8298V8.82983H6.97998V13.3298C6.97998 13.6059 6.75612 13.8298 6.47998 13.8298C6.20384 13.8298 5.97998 13.6059 5.97998 13.3298V7.82983H8.97998C8.97998 5.42611 10.9323 3.82983 12.98 3.82983C15.0375 3.82983 16.98 5.53539 16.98 7.82983H19.98V20.3298C19.98 21.1582 19.3084 21.8298 18.48 21.8298H13.48C13.2039 21.8298 12.98 21.6059 12.98 21.3298C12.98 21.0537 13.2039 20.8298 13.48 20.8298H18.48C18.7561 20.8298 18.98 20.6059 18.98 20.3298V8.82983H16.98V10.8298H15.98V8.82983H9.97998V10.8298H8.97998ZM12.98 4.82983C11.4277 4.82983 9.97998 6.03355 9.97998 7.82983H15.98C15.98 6.12427 14.5225 4.82983 12.98 4.82983Z" fill="#1F2026"/>
<path d="M8.47998 14.8298C8.75612 14.8298 8.97998 15.0537 8.97998 15.3298V17.8298H11.48C11.7561 17.8298 11.98 18.0537 11.98 18.3298C11.98 18.6059 11.7561 18.8298 11.48 18.8298H8.97998V21.3298C8.97998 21.6059 8.75612 21.8298 8.47998 21.8298C8.20384 21.8298 7.97998 21.6059 7.97998 21.3298V18.8298H5.47998C5.20384 18.8298 4.97998 18.6059 4.97998 18.3298C4.97998 18.0537 5.20384 17.8298 5.47998 17.8298H7.97998V15.3298C7.97998 15.0537 8.20384 14.8298 8.47998 14.8298Z" fill="#1F2026"/>
</svg>
